# xmcd
#
# Track frame offsets:
#      150
#      23037
#      40560
#      57310
#      87860
#      105052
#      114255
#      125322
#      137507
#      155672
#      179475
#      205215
#      226090
#      243017
#      261432
#      292632
# 
# Disc length: 4278 seconds
#
# Revision: 2
# Processed by: cddbd v1.4PL0 Copyright (c) Steve Scherf et al.
#
# Submitted via: FreeRIP 1.21
#
DISCID=c010b410
DTITLE=Pearl Jam - LIVE On two legs
DYEAR=1998
DGENRE=Grunge
TTITLE0=Corduroy
TTITLE1=Given to fly
TTITLE2=Hail, Hail
TTITLE3=Daughter
TTITLE4=Elderly woman behind the counter in a small town
TTITLE5=Untitled
TTITLE6=MFC
TTITLE7=Go
TTITLE8=Red mosquito
TTITLE9=Even flow
TTITLE10=Off he goes
TTITLE11=Nothingman
TTITLE12=Do the evolution
TTITLE13=Better man
TTITLE14=Black
TTITLE15=F*uckin' up
EXTD=
EXTT0=
EXTT1=
EXTT2=
EXTT3=
EXTT4=
EXTT5=
EXTT6=
EXTT7=
EXTT8=
EXTT9=
EXTT10=
EXTT11=
EXTT12=
EXTT13=
EXTT14=
EXTT15=
PLAYORDER=
